<?xml version="1.0" standalone="no"?>
<!DOCTYPE svg PUBLIC "-//W3C//DTD SVG 20010904//EN"
 "http://www.w3.org/TR/2001/REC-SVG-20010904/DTD/svg10.dtd">
<svg version="1.0" xmlns="http://www.w3.org/2000/svg"
 width="256.000000pt" height="256.000000pt" viewBox="0 0 256.000000 256.000000"
 preserveAspectRatio="xMidYMid meet">
<metadata>
Created by potrace 1.11, written by Peter Selinger 2001-2013
</metadata>
<g transform="translate(0.000000,256.000000) scale(0.100000,-0.100000)"
fill="#000000" stroke="none">
<path d="M960 2030 l0 -320 105 0 105 0 0 -159 0 -160 -348 -3 -349 -3 -48
-30 c-36 -22 -57 -45 -77 -84 -28 -53 -28 -55 -28 -237 l0 -184 -105 0 -105 0
0 -320 0 -320 318 2 317 3 3 317 2 317 -107 3 -108 3 -3 158 -3 157 321 0 320
0 0 -160 0 -160 -105 0 -105 0 0 -320 0 -320 320 0 320 0 0 320 0 320 -105 0
-105 0 0 160 0 160 320 0 321 0 -3 -157 -3 -158 -108 -3 -107 -3 2 -317 3
-317 318 -3 317 -2 0 320 0 320 -105 0 -105 0 0 184 c0 182 0 184 -28 237 -20
39 -41 62 -77 84 l-48 30 -349 3 -348 3 0 160 0 159 105 0 105 0 0 320 0 320
-320 0 -320 0 0 -320z"/>
</g>
</svg>
